<svg xmlns="http://www.w3.org/2000/svg" xmlns:xlink="http://www.w3.org/1999/xlink" id="Layer_1" x="0" y="0" version="1.1" viewBox="0 0 566.9 566.9" xml:space="preserve" style="enable-background:new 0 0 566.9 566.9"><style type="text/css">.st0{fill:#dce2f0}.st1{fill:#d5ecf7}.st2{fill:#fff}.st3{clip-path:url(#SVGID_2_)}.st4{fill:none;stroke:#0477bc;stroke-width:2.75;stroke-linejoin:round}.st5{fill:#0477bc}.st6{fill:none;stroke:#fff;stroke-width:13;stroke-linecap:round;stroke-miterlimit:10}.st7{fill:#3880ff}</style><g><g id="Browser_Extension"><circle cx="283.5" cy="283.5" r="239.2" class="st0"/><path d="M475.9,420l-25.6-208.7l-2.8-22.6c-1.3-10.9-11.2-18.6-22.1-17.3L52.2,217.2c-10.9,1.3-18.6,11.3-17.3,22.1 l2.8,22.6l25.6,208.7c1.3,10.5,10.8,17.9,21.3,16.6l374.7-46C469.7,440,477.1,430.5,475.9,420z" class="st1"/><path d="M473.8,113.7L81,161.9c-11.5,1.4-19.6,11.8-18.2,23.3c0,0,0,0,0,0l2.9,23.7l26.9,219.7 c1.4,11,11.4,18.9,22.4,17.5l394.4-48.4c11-1.3,18.9-11.4,17.5-22.4c0,0,0,0,0,0l-27-219.7l-2.9-23.8 C495.7,120.5,485.3,112.3,473.8,113.7C473.8,113.7,473.8,113.7,473.8,113.7z" class="st2"/><g><defs><path id="SVGID_1_" d="M473.8,113.7L81,161.9c-11.5,1.4-19.6,11.8-18.2,23.3c0,0,0,0,0,0l2.9,23.7l26.9,219.7 c1.4,11,11.4,18.9,22.4,17.5l394.4-48.4c11-1.3,18.9-11.4,17.5-22.4c0,0,0,0,0,0l-27-219.7l-2.9-23.8 C495.7,120.5,485.3,112.3,473.8,113.7C473.8,113.7,473.8,113.7,473.8,113.7z"/></defs><clipPath id="SVGID_2_"><use xlink:href="#SVGID_1_" style="overflow:visible"/></clipPath><g class="st3"><rect width="478.2" height="33.3" x="35.8" y="138.2" class="st1" transform="matrix(0.9926 -0.1217 0.1217 0.9926 -16.805 34.6083)"/></g></g><path d="M473.8,113.7L81,161.9c-11.5,1.4-19.6,11.8-18.2,23.3c0,0,0,0,0,0l2.9,23.7l26.9,219.7 c1.4,11,11.4,18.9,22.4,17.5l394.4-48.4c11-1.3,18.9-11.4,17.5-22.4c0,0,0,0,0,0l-27-219.7l-2.9-23.8 C495.7,120.5,485.3,112.3,473.8,113.7C473.8,113.7,473.8,113.7,473.8,113.7z" class="st4"/><circle cx="117.7" cy="177.3" r="6" class="st5"/><circle cx="148.4" cy="173.5" r="6" class="st5"/><circle cx="476.4" cy="133.2" r="6" class="st5"/><circle cx="86.9" cy="181" r="6" class="st5"/><path d="M466.6,172.1l-139.8,17.2c-3,0.4-5.1,3.1-4.8,6.1c0,0,0,0,0,0L337.2,319c0.4,3,3.1,5.1,6.1,4.8l151.2-18.6 c3-0.4,5.1-3.1,4.8-6.1c0,0,0,0,0,0l-14.5-118.3L466.6,172.1z" class="st5"/><path d="M484.7,152.2l-15.1,16.1l-139.8,17.2c-3,0.4-5.1,3.1-4.8,6.1c0,0,0,0,0,0l15.2,123.6c0.4,3,3.1,5.1,6.1,4.8 l151.2-18.6c3-0.4,5.1-3.1,4.8-6.1c0,0,0,0,0,0L484.7,152.2z" class="st1"/><line x1="399.9" x2="442.5" y1="293" y2="287.7" class="st6"/></g></g><g><path d="M412.3,196.9l0,5h0c14.1,0,26.2,10.5,28.2,24.5c2.2,15.6-8.7,30.1-24.2,32.3c-1.4,0.2-2.7,0.3-4.1,0.3 c-14.1,0-26.2-10.5-28.2-24.5c-2.2-15.6,8.7-30.1,24.2-32.3c1.4-0.2,2.7-0.3,4.1-0.3L412.3,196.9 M412.3,196.9 c-1.6,0-3.2,0.1-4.8,0.3c-18.4,2.6-31.1,19.6-28.5,38c2.4,16.8,16.8,28.8,33.2,28.8c1.6,0,3.2-0.1,4.8-0.3 c18.4-2.6,31.1-19.6,28.5-38C443.2,209,428.8,196.9,412.3,196.9L412.3,196.9z" class="st7"/></g><g><path d="M407.6,197.2C407.5,197.2,407.5,197.2,407.6,197.2l-7,64.7c5.1,1.9,10.7,2.6,16.5,1.8c5.8-0.8,11-3.1,15.3-6.3L407.6,197.2 C407.6,197.2,407.6,197.2,407.6,197.2z"/></g></svg>